<svg id="Шар_1" data-name="Шар 1" xmlns="http://www.w3.org/2000/svg" xmlns:xlink="http://www.w3.org/1999/xlink" viewBox="0 0 326.73 75.07"><defs><style>.cls-1{fill:url(#Градієнт_без_назви);}.cls-2{fill:url(#Градієнт_без_назви_2);}</style><linearGradient id="Градієнт_без_назви" x1="613.4" y1="-847.57" x2="613.4" y2="-793.71" gradientTransform="matrix(1, 0, 0, -1, -581.42, -793.71)" gradientUnits="userSpaceOnUse"><stop offset="0" stop-color="#00576b"/><stop offset="1" stop-color="#00b793"/></linearGradient><linearGradient id="Градієнт_без_назви_2" x1="613.4" y1="-868.78" x2="613.4" y2="-812.92" xlink:href="#Градієнт_без_назви"/></defs><path class="cls-1" d="M16,45.28l.42.27A39.14,39.14,0,0,0,24,37V24.54l-8,5.33ZM40,37V24.54L33.12,20A49.64,49.64,0,0,0,40,37Zm7.58,8.57.41-.27V35.69l-6,4A38,38,0,0,0,47.56,45.55ZM32,0,0,21.31V53.87a44.36,44.36,0,0,0,9.18-3.51L8,49.58v-24l24-16,24,16v24l-1.18.78A44.06,44.06,0,0,0,64,53.87h0V21.31Z"/><path class="cls-2" d="M54.79,50.36,32,65.48,9.18,50.36A44.36,44.36,0,0,1,0,53.87l32,21.2,32-21.2A44.06,44.06,0,0,1,54.79,50.36ZM41.93,39.7,40,41V37a49.64,49.64,0,0,1-6.86-17L32,19.22V55.88L47.56,45.55a38,38,0,0,1-5.63-5.85ZM24,37a39.14,39.14,0,0,1-7.57,8.57l7.57,5Z"/><path d="M71.48,9.6h8V65.48h-8Z"/><path d="M137.78,9.6h8V65.48h-8Z"/><path d="M108.3,65.48a30.42,30.42,0,0,0,12.18-2.17,16.62,16.62,0,0,0,7.37-5.75,14.06,14.06,0,0,0,2.42-8,11.93,11.93,0,0,0-2.7-8.21,16.86,16.86,0,0,0-6.6-4.57,73.18,73.18,0,0,0-10.08-2.94c-3-.73-5.39-1.4-7.17-2a12.73,12.73,0,0,1-4.49-2.46,5.42,5.42,0,0,1-1.85-4.22,6.77,6.77,0,0,1,3.17-5.82c2-1.41,5.19-2.13,9.33-2.13a29.07,29.07,0,0,1,7.81,1.12,33,33,0,0,1,7.26,3l2.91-7.13a27.93,27.93,0,0,0-8-3.36A40.52,40.52,0,0,0,110,9.6a30.58,30.58,0,0,0-12.14,2.17,16.59,16.59,0,0,0-7.34,5.8,14.33,14.33,0,0,0-2.41,8.06A12.24,12.24,0,0,0,90.77,34a16.59,16.59,0,0,0,6.55,4.57,84.56,84.56,0,0,0,10.21,3c3,.73,5.41,1.4,7.17,2a12.69,12.69,0,0,1,4.48,2.5A5.56,5.56,0,0,1,121,50.25a6.43,6.43,0,0,1-3.27,5.59c-2.1,1.37-5.29,2-9.47,2a30.91,30.91,0,0,1-10.09-1.72,29.22,29.22,0,0,1-8-4.1L87,59.19a26.19,26.19,0,0,0,9,4.5A42.13,42.13,0,0,0,108.3,65.48Z"/><polygon points="200.37 9.61 180.83 9.61 172.83 9.61 153.29 9.61 153.29 17.6 172.83 17.6 172.83 65.48 180.83 65.48 180.83 17.6 200.37 17.6 200.37 9.61"/><path d="M242,49.83V65.48h-2.57V50c0-6.06-3.13-9.24-8.37-9.24-6,0-9.8,4.06-9.8,10.42V65.48h-2.57V50c0-6.06-3.13-9.24-8.36-9.24-6.06,0-9.81,4.06-9.81,10.42V65.48h-2.56V38.69h2.46v5.75c1.74-3.75,5.39-6,10.27-6s8.36,2.21,9.8,6.47c1.75-3.9,5.65-6.47,10.83-6.47C237.74,38.48,242,42.33,242,49.83Z"/><path d="M271.32,52.5h-23c.26,6.36,4.93,10.67,11.34,10.67a10.81,10.81,0,0,0,8.58-3.75l1.49,1.7a12.86,12.86,0,0,1-10.12,4.36c-8.11,0-13.8-5.64-13.8-13.6s5.49-13.6,12.83-13.6,12.78,5.54,12.78,13.5C271.37,52,271.32,52.24,271.32,52.5Zm-23-2h20.53c-.35-5.8-4.56-10-10.26-10S248.73,44.64,248.32,50.49Z"/><path d="M299.15,49.83V65.48h-2.57V50c0-6.06-3.23-9.24-8.67-9.24-6.32,0-10.16,4.06-10.16,10.42V65.48h-2.57V38.69h2.46v5.8c1.8-3.75,5.55-6,10.63-6C294.79,38.48,299.15,42.33,299.15,49.83Z"/><path d="M326.73,38.48v26.8h-2.47V59.53c-1.74,3.74-5.39,6-10.11,6-6.83,0-11.19-3.85-11.19-11.34V38.48h2.57V53.93c0,6.06,3.23,9.24,8.82,9.24,6.06,0,9.81-4.05,9.81-10.42V38.48Z"/></svg>