<svg id="Шар_1" data-name="Шар 1" xmlns="http://www.w3.org/2000/svg" viewBox="0 0 326.73 75.07"><defs><style>.cls-1{fill:#fff;}</style></defs><rect class="cls-1" x="71.48" y="9.61" width="8" height="55.88"/><rect class="cls-1" x="137.78" y="9.61" width="8" height="55.88"/><path class="cls-1" d="M121,36.76a72.2,72.2,0,0,0-10.08-2.94c-3-.73-5.39-1.4-7.17-2a12.72,12.72,0,0,1-4.49-2.46,5.4,5.4,0,0,1-1.85-4.21,6.79,6.79,0,0,1,3.17-5.83c2-1.41,5.19-2.13,9.33-2.13a29.24,29.24,0,0,1,7.81,1.12,32.71,32.71,0,0,1,7.26,3l2.91-7.13a27.8,27.8,0,0,0-8-3.35A39.62,39.62,0,0,0,110,9.61a30.34,30.34,0,0,0-12.14,2.17,16.61,16.61,0,0,0-7.34,5.8,14.26,14.26,0,0,0-2.41,8.05A12.25,12.25,0,0,0,90.77,34a16.5,16.5,0,0,0,6.55,4.56,82.69,82.69,0,0,0,10.21,3c3,.73,5.41,1.4,7.17,2A12.62,12.62,0,0,1,119.18,46,5.54,5.54,0,0,1,121,50.25a6.43,6.43,0,0,1-3.27,5.6c-2.1,1.36-5.29,2-9.47,2a31.23,31.23,0,0,1-10.09-1.72,29.73,29.73,0,0,1-8-4.1L87,59.2a26.24,26.24,0,0,0,9,4.5,42.65,42.65,0,0,0,12.27,1.79,30.54,30.54,0,0,0,12.18-2.17,16.75,16.75,0,0,0,7.37-5.75,14.05,14.05,0,0,0,2.42-8,11.91,11.91,0,0,0-2.7-8.21A16.88,16.88,0,0,0,121,36.76Z"/><polygon class="cls-1" points="200.37 9.61 180.83 9.61 172.83 9.61 153.29 9.61 153.29 17.6 172.83 17.6 172.83 65.48 180.83 65.48 180.83 17.6 200.37 17.6 200.37 9.61"/><path class="cls-1" d="M32,0,0,21.31V53.87l32,21.2,32-21.2h0V21.31ZM56,49.58,32,65.48,8,49.58v-24l24-16,24,16Z"/><polygon class="cls-1" points="47.97 35.69 39.98 41 39.98 24.54 31.98 19.22 31.98 55.89 47.97 45.29 47.97 35.69"/><polygon class="cls-1" points="15.99 29.87 15.99 45.28 23.99 50.59 23.99 24.54 15.99 29.87"/><path class="cls-1" d="M242,49.82V65.48h-2.57V50c0-6.06-3.13-9.24-8.37-9.24-6,0-9.8,4.06-9.8,10.42V65.48h-2.57V50c0-6.06-3.13-9.24-8.36-9.24-6.06,0-9.81,4.06-9.81,10.42V65.48h-2.56V38.69h2.46v5.74c1.74-3.74,5.39-6,10.27-6s8.36,2.21,9.8,6.47c1.75-3.9,5.65-6.47,10.83-6.47C237.74,38.48,242,42.33,242,49.82Z"/><path class="cls-1" d="M271.32,52.49h-23c.26,6.37,4.93,10.68,11.34,10.68a10.81,10.81,0,0,0,8.58-3.75l1.49,1.7a12.86,12.86,0,0,1-10.12,4.36c-8.11,0-13.8-5.65-13.8-13.6s5.49-13.6,12.83-13.6,12.78,5.54,12.78,13.5C271.37,52,271.32,52.24,271.32,52.49Zm-23-2h20.53c-.35-5.8-4.56-10-10.26-10S248.73,44.64,248.32,50.49Z"/><path class="cls-1" d="M299.15,49.82V65.48h-2.57V50c0-6.06-3.23-9.24-8.67-9.24-6.32,0-10.16,4.06-10.16,10.42V65.48h-2.57V38.69h2.46v5.8c1.8-3.75,5.55-6,10.63-6C294.79,38.48,299.15,42.33,299.15,49.82Z"/><path class="cls-1" d="M326.73,38.48v26.8h-2.47V59.53c-1.74,3.74-5.39,6-10.11,6-6.83,0-11.19-3.85-11.19-11.34V38.48h2.57V53.93c0,6.06,3.23,9.24,8.82,9.24,6.06,0,9.81-4.05,9.81-10.42V38.48Z"/></svg>