<svg id="Шар_1" data-name="Шар 1" xmlns="http://www.w3.org/2000/svg" xmlns:xlink="http://www.w3.org/1999/xlink" viewBox="0 0 63.96 75.07"><defs><style>.cls-1{fill:url(#Градієнт_без_назви);}.cls-2{fill:url(#Градієнт_без_назви_2);}</style><linearGradient id="Градієнт_без_назви" x1="613.4" y1="-847.57" x2="613.4" y2="-793.71" gradientTransform="matrix(1, 0, 0, -1, -581.42, -793.71)" gradientUnits="userSpaceOnUse"><stop offset="0" stop-color="#00576b"/><stop offset="1" stop-color="#00b793"/></linearGradient><linearGradient id="Градієнт_без_назви_2" x1="613.4" y1="-868.78" x2="613.4" y2="-812.92" xlink:href="#Градієнт_без_назви"/></defs><path class="cls-1" d="M16,45.28l.42.27A39.14,39.14,0,0,0,24,37V24.54l-8,5.33ZM40,37V24.54L33.12,20A49.64,49.64,0,0,0,40,37Zm7.58,8.57.41-.27V35.69l-6,4A38,38,0,0,0,47.56,45.55ZM32,0,0,21.31V53.87a44.36,44.36,0,0,0,9.18-3.51L8,49.58v-24l24-16,24,16v24l-1.18.78A44.06,44.06,0,0,0,64,53.87h0V21.31Z"/><path class="cls-2" d="M54.79,50.36,32,65.48,9.18,50.36A44.36,44.36,0,0,1,0,53.87l32,21.2,32-21.2A44.06,44.06,0,0,1,54.79,50.36ZM41.93,39.7,40,41V37a49.64,49.64,0,0,1-6.86-17L32,19.22V55.88L47.56,45.55a38,38,0,0,1-5.63-5.85ZM24,37a39.14,39.14,0,0,1-7.57,8.57l7.57,5Z"/></svg>